<?xml version="1.0" encoding="utf-8"?>
<!-- Generator: Adobe Illustrator 25.1.0, SVG Export Plug-In . SVG Version: 6.00 Build 0)  -->
<svg version="1.1" id="Layer_1" xmlns="http://www.w3.org/2000/svg" xmlns:xlink="http://www.w3.org/1999/xlink" x="0px" y="0px"
	 viewBox="0 0 583 576" style="enable-background:new 0 0 583 576;" xml:space="preserve">
<style type="text/css">
	.st0{fill:#FFFFFF;}
	.st1{fill:none;stroke:#EFD90A;stroke-width:10.8066;stroke-miterlimit:10;}
</style>
<g>
	<path class="st0" d="M510.1,337.1c0-5.1-1-9.5-3.1-14c-1.2-2.6-2.6-5.2-3.4-7.9c-1.3-4.4-2.2-9-3.2-13.5s-1.9-9.1-4.5-13.1
		c-4.1-6.3-13.9-11.4-22.9-7.6c-4.8,2-9.1,4.7-13.4,7.5c-4.7,3.1-9.5,6-14.9,7.8c-4.3,1.4-8.3,3.6-11.6,6.6
		c-5.4,4.8-9,10.6-8.8,18.2c0.1,5.6,2.4,10.1,6.7,13.7c3.2,2.7,7.2,3.7,11.2,4.3c4.2,0.7,8.4,1.2,12.6,1.8c4.2,0.6,8.2,1.9,11.7,4.3
		c4.4,3.1,8.8,6.1,13.1,9.4c7,5.2,17.3,4.9,23.8-1C508.3,349.2,510.3,343.6,510.1,337.1z M342.1,306.9c0-0.1-0.1-0.3-0.1-0.4
		c-2.5,0.6-5.1,1-7.5,2c-3.6,1.6-7,3.6-10.3,5.7c-6.2,3.9-12.4,7.6-19.3,10.1c-6.5,2.4-11.5,6.6-15.2,12.4
		c-3.6,5.7-4.1,11.7-1.8,17.9c2.4,6.5,7.7,9.7,14.1,11.1c3.8,0.8,7.7,1.3,11.6,1.6c6.3,0.6,12.1,2.7,17.3,6.4
		c3.8,2.7,7.5,5.6,11.4,8.2c5.5,3.6,11.3,4.6,17.6,2.2c6.3-2.4,10.2-7.1,11.8-13.4c1.9-7.2,0.4-14.1-2.6-20.8
		c-1.3-2.9-2.8-5.7-3.6-8.7c-1.6-5.8-2.9-11.8-4.1-17.7C359.6,314.1,351.3,306.8,342.1,306.9z M497.5,271.8c0.1,1,0,2.1,0.2,3.1
		c0.6,3.6,2.1,6.8,5.1,9c4.3,3.1,9,2.9,13.7,1.2c5.2-1.9,9.2-5.4,12.2-10c3.2-4.9,5.2-10.1,4.5-16.1c-0.9-8.1-6.9-12.7-14-12.2
		c-3.7,0.3-7,1.7-10,3.8C502,255.9,498.2,263,497.5,271.8z M383,274c-4.2-0.1-7.5,1.2-10.5,3.2c-7.5,4.9-12,11.8-12.7,20.8
		c-0.8,11.3,7.8,18,17.7,14.6c11-3.8,16.9-12,17.9-23.5C396.2,280.8,390.9,273.9,383,274z M492.7,248.8c0-3.9-0.8-7.4-2.4-10.6
		c-3.9-7.8-12.3-10.2-19.4-4.9c-4.9,3.6-7.6,8.7-8.9,14.7c-1.3,6.2-0.7,12.1,2.7,17.5c2,3.1,4.7,5.4,8.4,6c4.6,0.8,8.6-0.8,11.8-4.1
		C490.2,262.2,492.5,255.8,492.7,248.8z M354.8,275c0.3-3.9-0.8-8.1-3.6-11.8c-2-2.8-4.7-5-8.1-5.5c-4.4-0.7-8.3,0.8-11.5,3.9
		c-5.1,4.9-7.7,11-7.9,18c-0.1,4.2,0.5,8.2,2.5,12c4.3,7.8,13.4,9.6,20,3.7C352.2,290,354.9,283.4,354.8,275z M375.8,334.9
		c0,4,1.5,7.2,4.7,9.6c4.8,3.5,10.1,3.2,15.1,1.2c7.7-3.1,12.9-8.8,14.3-17.3c0.6-3.6-0.3-7-2.7-9.8c-3.7-4.3-8.6-4.8-13.7-4.1
		c-3.4,0.4-6.3,2.3-9,4.3C379.2,322.8,376.1,328.1,375.8,334.9z M426.9,268.3c0,3.7,1.1,8.1,4,12c5.5,7.5,14.4,7.3,19.6,1.3
		c6.8-7.8,6.7-20.2,0.1-28.1c-5-5.9-13.2-6-18.4-0.3C428.4,257.2,426.9,262,426.9,268.3z M317.6,294.9c-0.1-5.7-1.5-10.5-5-14.6
		c-4.9-5.6-12.7-5.9-17.8-0.5c-3.2,3.3-5,7.4-5.4,12c-0.6,6.8,0.8,12.9,5.9,17.9c4.2,4.1,10.9,4.5,15.4,0.8
		C315.6,306.3,317.3,300.8,317.6,294.9z"/>
	<path d="M76.8,264.6c0.2-0.5,0.6-1,0.6-1.6c0.5-9.2,1.9-18.2,3.9-27.1c1-4.4,2.4-8.7,3.8-13.1c2.1-7.1,5.1-13.8,8.5-20.3
		c5.2-10.2,11.8-19.5,19.9-27.5c4.5-4.5,9.6-8.3,14.7-12.2s10.8-6.9,16.8-9.3c4.4-1.8,8.9-3.1,13.4-4.4c8-2.3,16.2-3.2,24.5-3.1
		c6.2,0.1,12.4,0.9,18.5,2.1c9.7,1.9,18.7,5.5,27.4,10.1c8.3,4.5,15.9,10,22.9,16.5c13.2,12.3,23.2,26.8,31.2,42.9
		c1,2,1.8,4.1,2.8,6.2c0.1,0.3,0.5,0.7,0.7,0.6c0.3-0.1,0.7-0.3,0.8-0.6c6.2-14.5,14.5-27.6,25-39.3c7.1-7.9,15.1-14.7,24.1-20.5
		c6.6-4.2,13.6-7.8,21.1-10.3c5.3-1.7,10.6-3.5,16-4.5c9-1.6,18-2.3,27.1-1.2c6.3,0.7,12.5,1.7,18.5,3.6c10,3.1,19.3,7.6,27.9,13.7
		c10.7,7.6,19.5,16.9,26.7,27.8c5.7,8.7,10.2,17.9,13.6,27.7c0.2,0.6,0.4,1.2,0.6,1.8c0.1,0.4,0.1,0.9,0.2,1.4c-0.5,0-1,0-1.5-0.1
		c-2.8-0.7-5.6-1.6-8.6-1.3c-6.2,0.6-11.2,3.4-15.4,7.9c-0.4,0.4-0.6,0.9-0.8,1.4c-0.2-0.1-0.4-0.2-0.6-0.3
		c-0.5-1.2-1.1-2.3-1.6-3.6c-2.4-6.2-5.5-12.1-9.2-17.6c-6.1-9.1-13.3-17.1-22.2-23.6c-5.7-4.1-11.7-7.6-18.1-10.2
		c-9.4-3.8-19.1-5.8-29.3-6.1c-7.1-0.2-14.2,0.2-21,2c-5.4,1.4-10.6,3.3-15.8,5.3c-7.6,2.9-14.4,7.3-20.9,12.2
		c-7.9,6-14.6,13.2-20.6,21.1c-5.4,7.1-9.8,14.8-13.5,22.9c-0.5,1.2-1,2.4-1.6,3.5c-0.1,0.3-0.5,0.7-0.8,0.7s-0.6-0.4-0.8-0.7
		c-3-7.1-6.6-13.9-10.8-20.4c-5.6-8.7-12.1-16.6-19.7-23.6c-7.4-6.7-15.6-12.2-24.6-16.5c-12.6-6-25.9-8.3-39.7-7.8
		c-9.8,0.4-19.3,2.5-28.3,6.5c-9.3,4.1-17.6,9.8-25,16.7c-7.9,7.3-14.1,15.9-19.1,25.5c-5.7,10.8-9.5,22.3-11.8,34.2
		c-2.3,12-3.5,24.1-2.9,36.3c0.6,12.3,3.3,24.1,8.5,35.3c4.9,10.5,11.6,19.8,19.6,28.2c8.2,8.6,17.4,16,27.1,22.7
		c7.3,5,14.8,9.6,22.3,14.3c6.5,4.1,13.1,8,19.6,12.1c5.7,3.6,11.4,7.1,16.9,10.9c9.4,6.5,18.5,13.6,26.7,21.6
		c6.8,6.6,13.5,13.3,20,20.2c6.3,6.8,11.9,14.1,16.7,22c1.8,2.9,3.1,6.1,4.6,9.1c0.3,0.5,0.6,1,1,1.8c0.7-1.5,1.3-2.8,1.9-4
		c2.8-6,6.7-11.3,10.6-16.5c5.9-8,12.6-15.2,19.5-22.3c5.9-6,12-11.8,18.3-17.3c7.3-6.3,14.8-12.5,22.6-18.2
		c8.4-6.1,17.3-11.5,26-17.2c7-4.5,14.1-8.9,21-13.6s13.8-9.4,20.3-14.5c5.5-4.4,10.4-9.5,15.6-14.3c1.2-1.2,2.4-1.7,4.1-1.3
		c2.5,0.5,5,0.7,7.5,1c3.5,0.4,6.5,2,9.3,3.9c1,0.6,0.4,1.2-0.1,1.6c-4.5,4.1-8.9,8.5-13.6,12.3c-6,4.9-12.1,9.6-18.6,13.9
		c-10.8,7.3-21.9,14.1-32.8,21.2c-9.6,6.2-19.2,12.4-28.4,19c-6.8,4.8-13.4,10.1-19.7,15.6c-7.8,6.7-15.4,13.6-22.8,20.7
		c-9,8.6-17.2,18-24.9,27.7c-4.7,5.9-8.9,12.2-12.6,18.8c-1.1,2-1.8,4.2-2.7,6.2c-0.1,0.3-0.2,0.5-0.5,1c-0.4-0.6-0.8-1-1-1.4
		c-1.8-5.1-4.5-9.7-7.4-14.3c-8.2-12.8-18.2-24.1-28.7-34.9c-9.6-9.8-19.8-18.9-30.7-27.2c-6.6-4.9-13.2-9.8-20.1-14.3
		c-9.8-6.4-19.9-12.4-29.9-18.6c-7.2-4.5-14.5-8.8-21.6-13.4c-10-6.6-19.6-13.7-28.5-21.7c-6.1-5.5-11.9-11.4-17.1-17.8
		c-5.5-6.7-10.1-14-13.9-21.8c-5.9-11.9-9.2-24.5-10.2-37.8c0-0.5-0.4-1-0.6-1.5C76.8,278.6,76.8,271.6,76.8,264.6z"/>
	<path d="M548,302.9c-0.3,0.4-0.7,0.7-0.8,1.1c-2,6-5.7,10.5-11.2,13.4c-4.8,2.5-9.9,3.8-15.3,1.5c-5.2-2.3-7.8-7.8-7-12.9
		c1.2-7.9,5.8-13.2,12.6-16.8c3.7-2,7.9-2.6,12.1-1.7c4.2,0.9,7.1,3.4,8.6,7.5c0.2,0.6,0.7,1.2,1,1.7C548,298.7,548,300.8,548,302.9
		z"/>
	<path d="M510.1,337.1c0.2,6.4-1.9,12-6.7,16.4c-6.5,5.9-16.8,6.2-23.8,1c-4.3-3.2-8.7-6.3-13.1-9.4c-3.5-2.4-7.5-3.7-11.7-4.3
		c-4.2-0.6-8.4-1.1-12.6-1.8c-4-0.6-8-1.6-11.2-4.3c-4.2-3.5-6.5-8.1-6.7-13.7c-0.2-7.6,3.4-13.3,8.8-18.2c3.4-3,7.3-5.2,11.6-6.6
		c5.4-1.8,10.2-4.7,14.9-7.8c4.3-2.8,8.6-5.5,13.4-7.5c9-3.7,18.8,1.4,22.9,7.6c2.6,4,3.5,8.6,4.5,13.1s1.9,9.1,3.2,13.5
		c0.8,2.7,2.2,5.3,3.4,7.9C509.2,327.7,510.1,332,510.1,337.1z"/>
	<path d="M342.1,306.9c9.2,0,17.5,7.2,19.4,16.5c1.2,5.9,2.5,11.9,4.1,17.7c0.8,3,2.3,5.8,3.6,8.7c3,6.7,4.4,13.6,2.6,20.8
		c-1.6,6.3-5.5,11-11.8,13.4s-12.1,1.5-17.6-2.2c-3.9-2.6-7.6-5.5-11.4-8.2c-5.2-3.7-10.9-5.7-17.3-6.4c-3.9-0.4-7.8-0.8-11.6-1.6
		c-6.4-1.4-11.7-4.6-14.1-11.1c-2.3-6.2-1.8-12.2,1.8-17.9c3.7-5.8,8.7-10,15.2-12.4c6.9-2.5,13.2-6.2,19.3-10.1
		c3.3-2.1,6.8-4.1,10.3-5.7c2.3-1.1,5-1.4,7.5-2C342,306.6,342.1,306.7,342.1,306.9z"/>
	<path d="M497.5,271.8c0.7-8.8,4.5-15.9,11.7-21.1c3-2.1,6.3-3.6,10-3.8c7.1-0.5,13.1,4,14,12.2c0.7,6-1.3,11.2-4.5,16.1
		c-3,4.6-7,8-12.2,10c-4.7,1.8-9.4,1.9-13.7-1.2c-3.1-2.2-4.6-5.4-5.1-9C497.5,273.9,497.6,272.8,497.5,271.8z"/>
	<path d="M383,274c7.9-0.1,13.1,6.8,12.4,15.1c-1.1,11.5-6.9,19.7-17.9,23.5c-9.9,3.4-18.5-3.3-17.7-14.6c0.7-9,5.2-15.9,12.7-20.8
		C375.5,275.2,378.9,273.9,383,274z"/>
	<path d="M492.7,248.8c-0.2,7-2.5,13.4-7.7,18.5c-3.3,3.2-7.2,4.8-11.8,4.1c-3.7-0.6-6.5-2.8-8.4-6c-3.4-5.4-4-11.3-2.7-17.5
		c1.2-6,3.9-11,8.9-14.7c7.1-5.3,15.5-2.9,19.4,4.9C491.9,241.5,492.8,244.9,492.7,248.8z"/>
	<path d="M354.8,275c0.1,8.5-2.6,15.1-8.4,20.2c-6.6,5.9-15.8,4.1-20-3.7c-2.1-3.8-2.6-7.8-2.5-12c0.2-7.1,2.7-13.1,7.9-18
		c3.2-3.1,7.1-4.5,11.5-3.9c3.5,0.5,6.1,2.7,8.1,5.5C354,266.9,355.1,271.1,354.8,275z"/>
	<path d="M375.8,334.9c0.3-6.8,3.4-12.1,8.8-16.2c2.7-2,5.6-3.9,9-4.3c5.1-0.7,10-0.2,13.7,4.1c2.4,2.8,3.3,6.2,2.7,9.8
		c-1.4,8.5-6.5,14.2-14.3,17.3c-5,2-10.3,2.4-15.1-1.2C377.3,342.2,375.7,339,375.8,334.9z"/>
	<path d="M426.9,268.3c0-6.3,1.5-11.1,5.2-15.2c5.2-5.7,13.4-5.6,18.4,0.3c6.6,7.9,6.7,20.3-0.1,28.1c-5.2,6-14.1,6.2-19.6-1.3
		C428,276.4,426.9,272.1,426.9,268.3z"/>
	<path d="M317.6,294.9c-0.2,5.8-2,11.4-7,15.6c-4.5,3.7-11.2,3.4-15.4-0.8c-5-5-6.4-11.1-5.9-17.9c0.4-4.6,2.2-8.6,5.4-12
		c5.2-5.4,12.9-5.1,17.8,0.5C316.1,284.4,317.5,289.2,317.6,294.9z"/>
</g>
<circle class="st1" cx="300.2" cy="289" r="272.4"/>
</svg>
