<?xml version="1.0" encoding="utf-8"?>
<!-- Generator: Adobe Illustrator 25.1.0, SVG Export Plug-In . SVG Version: 6.00 Build 0)  -->
<svg version="1.1" id="Layer_1" xmlns="http://www.w3.org/2000/svg" xmlns:xlink="http://www.w3.org/1999/xlink" x="0px" y="0px"
	 viewBox="0 0 583 576" style="enable-background:new 0 0 583 576;" xml:space="preserve">
<style type="text/css">
	.st0{fill:#FFFFFF;stroke:#000000;stroke-miterlimit:10;}
	.st1{stroke:#000000;stroke-width:5;stroke-miterlimit:10;}
	.st2{fill:#FFFFFF;stroke:#000000;stroke-width:5;stroke-miterlimit:10;}
	.st3{fill:#FFFFFF;}
	.st4{fill:none;stroke:#EFD90A;stroke-width:10.8066;stroke-miterlimit:10;}
</style>
<path class="st0" d="M-76,118.5"/>
<g>
	<path class="st1" d="M346.1,270.3c49.6-58.2,116.6-161.4,102.1-173.8c-14.5-12.4-105,70.8-154.6,129s-36.8,67.8-22.3,80.2
		C285.7,318.1,296.5,328.6,346.1,270.3z"/>
	<path class="st2" d="M244.3,301.5c-23.6-5.8-43.4,8.6-48.8,12.5c-29.2,21.2-30.9,57.2-31,62.4c1.8,18.9,0.3,41-13.2,57.8
		c-13.9,17.3-33.9,20.6-32.9,24.7c1.4,5.5,38.3,3.1,72-7.4c0,0,36.2-11.3,69.2-37.4c2.8-2.2,5.1-4.1,7.5-6.7
		c2.9-3,21.5-23.2,19.5-51C284.9,333.7,269.6,307.7,244.3,301.5z"/>
	<path class="st0" d="M317.8,248.6"/>
	<path class="st3" d="M196.2,346.8c0.3,5.6,2.2,11.1,7.7,14.6c4.4,2.8,8.8,1.4,11.3-3.2c3-5.7,1.7-15-3-19.7
		c-1.5-1.5-3.5-2.6-5.5-3.6c-2-1-4.1-0.4-5.9,0.9C197.2,338.3,196.2,342.1,196.2,346.8z"/>
	<path d="M202.2,409.3c-0.5-0.2-1.1-0.4-1.6-0.5c-3.9-1.2-6.3-5.4-5.5-9.4c1.4-6.7,4.4-12.6,8.6-18c5.6-7.2,15.6-10.3,23-6.8
		c2.9,1.4,5.6,3.5,7.9,5.8c4.5,4.6,8.1,9.8,10.6,15.8c0.8,2,1.3,4.1,1.4,6.3c0.1,3-1.5,5.1-4.4,6.2c-0.5,0.2-0.9,0.4-1.3,0.6
		c-1.2,0-2.5,0-3.8,0c-2.8-1.1-5.7-2.2-8.5-3.4c-4.3-1.7-8.6-1.7-13-0.4c-4.1,1.2-8.2,2.5-12.3,3.7
		C202.9,409.3,202.5,409.3,202.2,409.3z"/>
	<path d="M234.7,334.1c6,2.7,7.6,7.8,7.2,13.8c-0.4,5.9-2.6,10.9-8,13.9c-3.3,1.9-6.5,1.3-9.1-1.5c-3-3.2-3.8-7.2-3.4-11.4
		c0.4-4.4,1.7-8.4,5-11.5c1.4-1.3,3.2-2.2,4.9-3.2C232.4,334.1,233.5,334.1,234.7,334.1z"/>
	<path d="M258.3,369.6c-0.6,1.5-1,3.1-1.7,4.5c-2,4.1-4.9,7.2-9.6,8.2c-3.1,0.6-5.4-0.5-7.1-2.9c-2-2.8-2.4-5.9-1.7-9.1
		c1.1-5.7,3.6-10.4,9.1-12.8c4.5-2,8.5-0.2,10.3,4.4c0.2,0.6,0.5,1.2,0.8,1.9C258.3,365.8,258.3,367.7,258.3,369.6z"/>
	<path d="M180.3,364.8c0.2-0.5,0.5-1,0.7-1.5c1.3-4,5.6-6.1,9.6-4.6c7.2,2.7,11.9,12.2,9.7,19.5c-1.4,4.6-5.3,6.6-9.8,4.9
		c-5.1-2-8-5.9-9.5-10.9c-0.2-0.6-0.4-1.3-0.7-1.9C180.3,368.5,180.3,366.7,180.3,364.8z"/>
	<path d="M196.2,346.8c0-4.7,1-8.5,4.6-11.1c1.8-1.3,3.9-1.9,5.9-0.9c2,0.9,4,2.1,5.5,3.6c4.7,4.8,6,14.1,3,19.7
		c-2.4,4.6-6.9,6-11.3,3.2C198.3,357.9,196.5,352.4,196.2,346.8z"/>
</g>
<circle class="st4" cx="294.4" cy="286.5" r="272.4"/>
</svg>
