<?xml version="1.0" encoding="utf-8"?>
<!-- Generator: Adobe Illustrator 25.1.0, SVG Export Plug-In . SVG Version: 6.00 Build 0)  -->
<svg version="1.1" id="Layer_1" xmlns="http://www.w3.org/2000/svg" xmlns:xlink="http://www.w3.org/1999/xlink" x="0px" y="0px"
	 viewBox="0 0 583.2 576" style="enable-background:new 0 0 583.2 576;" xml:space="preserve">
<style type="text/css">
	.st0{fill:#FFFFFF;}
	.st1{fill:none;stroke:#EFD911;stroke-width:10.8066;stroke-miterlimit:10;}
</style>
<g>
	<path class="st0" d="M162.6,390.9c0.7,0.1,1.1,0.1,1.6,0.1c24.3,0.6,48.6,1.2,72.9,1.8c25.4,0.7,50.7,1.5,76.1,2.1
		c7,0.2,13.8-0.9,20.6-2.5c13.6-3.2,26.1-9.2,37.2-17.5c9.2-6.9,17.9-14.3,26.8-21.7c29.8-24.9,59.6-49.8,89.4-74.8
		c2.2-1.9,4.4-3.8,6.6-5.7c-0.3-0.6-0.5-1.1-0.8-1.5c-6-10.9-15.1-16.3-27.7-15.4c-7.1,0.5-13.7,2.6-20.2,5.2
		c-12,4.9-23,11.7-34,18.6c-15.5,9.8-30.4,20.7-46.6,29.4c-0.4,0.2-0.7,0.9-1,1.4c-1.3,2.4-2.2,5.1-3.8,7.2
		c-4.2,5.2-10.1,8.1-16.3,10.3c-13.6,4.9-27.8,6-42.1,6.3c-17,0.4-34-1-50.8-3c-5.6-0.6-11.2-1.5-16.8-2.2c1.1-0.3,2.1-0.3,3.2-0.3
		c24.1,1.2,48.2,2,72.3,0.2c11-0.8,22-2.1,32.6-5.6c5.6-1.8,11.2-4.1,15-8.8c5-6.3,4.7-8.6-0.8-14.1c-3.5-3.5-8.1-5-12.9-5.5
		c-6.9-0.7-13.9-0.8-20.9-1.2c-8.4-0.4-16.7-0.6-25.1-1.3c-9.8-0.8-18.8-4.7-28-8c-10.9-4-21.8-8.2-32.9-11.4
		c-14.3-4.1-28.7-3.4-42.5,2.6c-12.4,5.4-22.1,14.2-30.3,24.7c-0.5,0.6-0.6,1.6-0.6,2.4c0,25.2,0,50.4,0,75.5
		C162.6,382.5,162.6,386.6,162.6,390.9z M342.6,186.4c-0.3-0.6-0.6-1.1-1-1.6c-1.9-2.9-3.7-5.8-5.8-8.5c-7.8-10-18.3-12.9-30.4-11.3
		c-13.3,1.8-24.1,11.6-26.5,24.1c-1.5,7.7,0.1,15,2.8,22.2c4,10.7,10.5,19.8,17.7,28.5c10.6,12.8,22.7,24.1,34.8,35.4
		c2.7,2.5,5.5,5.1,8.3,7.6c4.9-4.5,9.6-8.8,14.3-13.3c12-11.3,23.8-22.8,33.8-36c6.2-8.2,11.5-16.8,14.3-26.8
		c1.8-6.2,2.7-12.5,1-18.9c-2.8-10.8-9.9-17.9-20.4-21.4c-11.9-4-28.2-2.8-37.9,12C346,181,344.4,183.6,342.6,186.4z M89.5,347.5
		c0,15.1,0,30.1,0,45.2c0,11,7.9,18.9,18.9,18.9c9.6,0,19.1,0,28.7,0c11.2,0,19.1-7.9,19.1-19.2c0-29.4,0-58.7,0-88.1
		c0-1.1,0-2.1,0-3.2c-0.4-10.6-8.3-18.2-18.9-18.2c-9.8,0-19.6,0-29.4,0c-10.1,0-18.2,8.1-18.3,18.2C89.5,316.6,89.5,332,89.5,347.5
		z"/>
	<path d="M162.6,390.9c0-4.3,0-8.4,0-12.5c0-25.2,0-50.4,0-75.5c0-0.8,0.2-1.8,0.6-2.4c8.2-10.5,17.9-19.3,30.3-24.7
		c13.9-6,28.2-6.7,42.5-2.6c11.1,3.2,22,7.4,32.9,11.4c9.2,3.3,18.2,7.2,28,8c8.3,0.7,16.7,0.9,25.1,1.3c7,0.4,14,0.5,20.9,1.2
		c4.8,0.5,9.4,2,12.9,5.5c5.5,5.5,5.8,7.8,0.8,14.1c-3.8,4.8-9.3,7-15,8.8c-10.6,3.5-21.6,4.8-32.6,5.6c-24.1,1.7-48.2,1-72.3-0.2
		c-1-0.1-2.1,0-3.2,0.3c5.6,0.7,11.2,1.6,16.8,2.2c16.9,1.9,33.8,3.4,50.8,3c14.3-0.3,28.5-1.4,42.1-6.3c6.2-2.2,12.1-5,16.3-10.3
		c1.7-2.1,2.6-4.8,3.8-7.2c0.3-0.5,0.5-1.2,1-1.4c16.2-8.7,31.1-19.5,46.6-29.4c10.9-6.9,22-13.7,34-18.6c6.5-2.7,13.1-4.7,20.2-5.2
		c12.6-0.9,21.7,4.5,27.7,15.4c0.2,0.4,0.5,0.9,0.8,1.5c-2.2,1.9-4.4,3.8-6.6,5.7c-29.8,24.9-59.6,49.9-89.4,74.8
		c-8.8,7.4-17.6,14.8-26.8,21.7c-11.1,8.4-23.5,14.3-37.2,17.5c-6.8,1.6-13.6,2.6-20.6,2.5c-25.4-0.6-50.7-1.5-76.1-2.1
		c-24.3-0.7-48.6-1.2-72.9-1.8C163.8,391,163.4,390.9,162.6,390.9z"/>
	<path d="M342.6,186.4c1.8-2.8,3.4-5.4,5.1-8c9.7-14.8,26-16,37.9-12c10.5,3.5,17.6,10.6,20.4,21.4c1.6,6.3,0.7,12.7-1,18.9
		c-2.8,10-8.1,18.6-14.3,26.8c-10,13.2-21.8,24.7-33.8,36c-4.7,4.4-9.4,8.8-14.3,13.3c-2.8-2.6-5.6-5.1-8.3-7.6
		c-12.1-11.3-24.2-22.6-34.8-35.4c-7.2-8.7-13.7-17.8-17.7-28.5c-2.7-7.2-4.3-14.5-2.8-22.2c2.4-12.5,13.2-22.4,26.5-24.1
		c12.1-1.6,22.6,1.3,30.4,11.3c2.1,2.7,3.9,5.7,5.8,8.5C342,185.3,342.3,185.8,342.6,186.4z"/>
	<path d="M89.5,347.5c0-15.4,0-30.9,0-46.3c0-10.1,8.1-18.2,18.3-18.2c9.8,0,19.6,0,29.4,0c10.6,0,18.5,7.6,18.9,18.2
		c0,1.1,0,2.1,0,3.2c0,29.4,0,58.7,0,88.1c0,11.2-7.9,19.2-19.1,19.2c-9.6,0-19.1,0-28.7,0c-11,0-18.9-7.9-18.9-18.9
		C89.5,377.6,89.5,362.5,89.5,347.5z"/>
</g>
<circle class="st1" cx="291.6" cy="288" r="272.4"/>
</svg>
