<?xml version="1.0" encoding="utf-8"?>
<!-- Generator: Adobe Illustrator 25.1.0, SVG Export Plug-In . SVG Version: 6.00 Build 0)  -->
<svg version="1.1" id="Layer_1" xmlns="http://www.w3.org/2000/svg" xmlns:xlink="http://www.w3.org/1999/xlink" x="0px" y="0px"
	 viewBox="0 0 253.3 236.9" style="enable-background:new 0 0 253.3 236.9;" xml:space="preserve">
<style type="text/css">
	.st0{fill:#FFFFFF;stroke:#000000;stroke-width:1.0622;stroke-miterlimit:10;}
	.st1{fill:none;stroke:#FBE118;stroke-width:3.1866;stroke-miterlimit:10;}
	.st2{fill:none;stroke:#000000;stroke-width:3.1866;stroke-miterlimit:10;}
	.st3{fill:none;}
	.st4{font-family:'LilitaOne';}
	.st5{font-size:40px;}
</style>
<g>
	<path class="st0" d="M186.3,170.7"/>
	<path class="st0" d="M177.8,169.6"/>
	<g>
		<path class="st1" d="M172.3,147.6c-5.1,15-16.4,23.3-25.1,29.7c-8.2,6.1-15.8,9.7-21.4,11.8c-5.4-2.1-13.2-5.7-21.4-11.8
			c-8.7-6.4-20-14.8-25.1-29.7c-1.3-3.8-6.9-20.2,1.8-33.1c1.2-1.7,5-7.3,12.5-10.2c2.5-1,11.4-3.8,20.3,1.1
			c6.7,3.6,9.7,9.3,10.9,12.7c0.3,0.7,1.3,0.7,1.6,0c1.3-3.4,4.4-9.1,10.9-12.7c8.9-4.9,17.7-2,20.3-1.1c7.5,2.9,11.4,8.5,12.5,10.2
			C179.2,127.5,173.6,143.9,172.3,147.6z"/>
		<path class="st1" d="M144.5,139.6c-0.3-0.2-3.6-6.6-6.5-4.7c-2.7,1.8-4.2,10.7-1,14.8c5.5,6.7,16.6,5.1,19.3,4.7
			c7.6-1.2,13-5.1,15.7-7.4"/>
		<path class="st2" d="M126.1,179.3c0,9,0,8.3,0,17.3c2.5,3.4,12.9,16.6,31,19.7c18.4,3.1,37.5-5.4,49.4-21.7"/>
		<path class="st2" d="M126.1,161c0,9,0,27.6,0,36.8c-2.5,3.4-12.9,16.6-31,19.7c-18.4,3.1-37.5-5.4-49.4-21.7"/>
		<path class="st1" d="M107,139.7c0.3-0.2,3.6-6.6,6.5-4.7c2.7,1.8,4.2,10.7,1,14.8c-5.5,6.7-16.6,5.1-19.3,4.7
			c-7.6-1.2-13-5.1-15.7-7.4"/>
	</g>
	<rect x="25.5" y="55.9" class="st3" width="201.2" height="73.7"/>
	<text transform="matrix(1 0 0 1 25.5152 82.8424)" class="st4 st5">Save a Bully</text>
</g>
</svg>
