<?xml version="1.0" encoding="utf-8"?>
<!-- Generator: Adobe Illustrator 25.1.0, SVG Export Plug-In . SVG Version: 6.00 Build 0)  -->
<svg version="1.1" id="Layer_1" xmlns="http://www.w3.org/2000/svg" xmlns:xlink="http://www.w3.org/1999/xlink" x="0px" y="0px"
	 viewBox="0 0 583 576" style="enable-background:new 0 0 583 576;" xml:space="preserve">
<style type="text/css">
	.st0{fill:#FFFFFF;}
	.st1{fill:none;stroke:#EFD911;stroke-width:10.8066;stroke-miterlimit:10;}
</style>
<g>
	<path class="st0" d="M281.5,448c-0.4,0.6-0.9,1.3-1.3,1.9c-5.6,0.9-11.7,0.8-16.8,3c-3.3,1.4-7.1,5.8-7.2,9
		c-0.1,3.2,3.4,8.6,6.5,9.6c7.7,2.5,16.1,4.3,24.2,4.2c27.9-0.3,55.8-1.8,83.7-2.3c8.3-0.2,15.3-2.5,20.6-8.6
		c4-4.6,7.9-4.1,13.1-2.6c18.3,5.4,36.9,9.3,56.2,7.8c22.2-1.7,33.7-17.1,27.4-36.5c-2.2-6.7-7.8-8.5-13.9-7.3
		c-3.5,0.7-9.3,3.3-9.4,5.2c-0.2,6.4,6.3,5.3,10.5,6.8c0.4,0.2,0.7,0.7,1,1.1c-5.6,10.7-8,12.3-19.3,11.1
		c-5.4-0.6-10.7-2.3-16.1-3.4c-13.5-2.8-18.9-8.7-20.4-22.1c-5.5-47.2-26.2-86.5-63.4-116c-24-19-49.3-36.3-74.7-53.5
		c-20.3-13.8-32.3-30.9-29.8-56.5c2.2-23.1-4.6-42.9-23-58c-5.1-4.2-9.3-9.7-14.8-13.3c-4.3-2.8-10.6-5.8-15-4.8
		c-10.9,2.7-18.5-0.7-25.3-8.7c-2.3-2.7-5.6-4.6-8-7.2c-4.4-4.7-9.5-8.6-15.9-6.3c-7,2.6-11.9,7.6-11.8,16.1c0,2.4-1.1,5.2-2.5,7.2
		c-4,5.8-9.5,10.7-12.5,16.9c-12.4,25.3-12.1,52.2-7.9,79.3c0.8,5.3,2.3,11.7,0.2,15.9c-16,31.5-21.4,64.8-19.2,99.6
		c0.1,1.9-0.3,3.9,0.1,5.7c1,5.5,2.3,10.9,3.5,16.4c1.1,5,8.2,10.5-1.3,14.7c-0.3,0.1,0.7,4.2,0.8,4.2c5.6-0.8,6.4,2.8,8.2,6.9
		c1,2.3,5.9,2.9,9,4.2c1-3.3,3.1-6.7,2.6-9.7c-0.4-2.4-3.6-4.6-6-6.5c-5.5-4.4-6-9.5-4.5-16c1-4.2,1.2-10.6-1.2-13.2
		c-4.8-5-4.4-10.4-4.3-15.9c0.1-10.2,0.3-20.5,1.4-30.6c1.8-17.3,6.9-33.6,15.9-50.9c1.2,6.3,2.7,10.5,2.6,14.7
		c-0.6,13.7-1.9,27.4-2.8,41.1c-1,15.2-3.9,31.5,5.9,44.1c7.4,9.6,7.1,18,4.6,28.1c-1,3.7-2.1,7.5-2.3,11.3
		c-0.6,9.8-1.2,19.7-0.8,29.6c0.2,5.1,4.1,8.5,9.7,8.1c5.4-0.3,10.2-1.4,11.2-8.3c0.8-5.4,2.9-10.6,4.4-15.9
		c5.7-19.2,2.5-35.4-13.9-48.9c-5.4-4.5-8.9-12.5-10.8-19.6c-1.9-7.2-1.9-15.4-0.8-23c3.3-23.1,6.2-45.9-0.7-68.9
		c-0.8-2.8,0.2-6.7,1.6-9.5c10.5-21.7,21.8-43.1,24.9-68.7c11.8,13.8,21.1,26.6,19.1,45.2c-3.5,33.5-5.4,67.1-8.7,100.7
		c-0.8,8.4,1.1,15,5.9,21.5c7.8,10.6,17.7,20.8,17.6,34.8c-0.1,27.3-1.3,54.6-2.2,81.9c-0.2,6.9-3.2,12.5-9.5,16.3
		c-6.4,3.9-9.5,9.7-7.4,18.4c3,0,5.9,0,8.9,0c9.4,0.1,18.8,0.5,28.2-0.1c2.1-0.1,5.3-3.7,5.7-6c1.4-8.1,1.8-16.3,2.5-24.5
		c20.3-2,21-2.8,22.5-23c0-0.3,0-0.6,0.1-0.8c1.4-11.1,2.7-22.2,4.3-34.4c12.1,4.5,23.2,8.4,34.1,12.8c12.6,5.1,13.8,7.9,10.3,21.4
		c-0.4,1.5-0.9,3-1.5,5.1c-4.8,0-9.7-0.9-14,0.3c-2.9,0.8-6.8,4.1-7.3,6.8c-0.8,4,1.4,8.1,7,8.2c2.5,0,5.1,0.1,7.4,0.9
		C278.2,445.2,279.8,446.8,281.5,448z"/>
	<path d="M281.5,448c-1.7-1.1-3.2-2.7-5.1-3.3c-2.3-0.7-4.9-0.9-7.4-0.9c-5.6,0-7.7-4.2-7-8.2c0.5-2.7,4.3-6,7.3-6.8
		c4.4-1.2,9.3-0.3,14-0.3c0.6-2.1,1.1-3.6,1.5-5.1c3.6-13.5,2.3-16.4-10.3-21.4c-10.9-4.4-22-8.3-34.1-12.8
		c-1.5,12.2-2.9,23.3-4.3,34.4c0,0.3,0,0.6-0.1,0.8c-1.5,20.2-2.2,20.9-22.5,23c-0.7,8.1-1.1,16.4-2.5,24.5c-0.4,2.4-3.6,5.9-5.7,6
		c-9.4,0.6-18.8,0.2-28.2,0.1c-3,0-6,0-8.9,0c-2.1-8.7,1-14.5,7.4-18.4c6.3-3.8,9.3-9.4,9.5-16.3c0.9-27.3,2.1-54.6,2.2-81.9
		c0-14.1-9.8-24.2-17.6-34.8c-4.8-6.5-6.7-13.1-5.9-21.5c3.3-33.5,5.2-67.2,8.7-100.7c1.9-18.6-7.4-31.3-19.1-45.2
		c-3.1,25.7-14.4,47-24.9,68.7c-1.4,2.8-2.4,6.7-1.6,9.5c6.9,23,4,45.9,0.7,68.9c-1.1,7.5-1.1,15.7,0.8,23
		c1.9,7.1,5.4,15.1,10.8,19.6c16.4,13.5,19.6,29.7,13.9,48.9c-1.6,5.3-3.6,10.5-4.4,15.9c-1,7-5.8,8-11.2,8.3
		c-5.6,0.4-9.5-3.1-9.7-8.1c-0.4-9.8,0.2-19.7,0.8-29.6c0.2-3.8,1.4-7.6,2.3-11.3c2.6-10,2.8-18.5-4.6-28.1
		c-9.8-12.6-6.9-28.9-5.9-44.1c0.9-13.7,2.2-27.4,2.8-41.1c0.2-4.2-1.4-8.4-2.6-14.7c-8.9,17.3-14.1,33.6-15.9,50.9
		c-1.1,10.1-1.3,20.4-1.4,30.6c-0.1,5.5-0.4,10.9,4.3,15.9c2.4,2.6,2.2,9,1.2,13.2c-1.6,6.6-1,11.7,4.5,16c2.3,1.9,5.6,4.1,6,6.5
		c0.5,3.1-1.6,6.5-2.6,9.7c-3.1-1.4-8-2-9-4.2c-1.8-4.2-2.6-7.8-8.2-6.9c-0.1,0-1.1-4.1-0.8-4.2c9.5-4.2,2.4-9.7,1.3-14.7
		c-1.2-5.5-2.5-10.9-3.5-16.4c-0.3-1.9,0.1-3.8-0.1-5.7c-2.2-34.9,3.2-68.2,19.2-99.6c2.1-4.2,0.6-10.6-0.2-15.9
		c-4.2-27.2-4.5-54,7.9-79.3c3-6.2,8.5-11.2,12.5-16.9c1.4-2,2.5-4.8,2.5-7.2c-0.1-8.5,4.8-13.6,11.8-16.1
		c6.4-2.3,11.5,1.5,15.9,6.3c2.4,2.6,5.7,4.5,8,7.2c6.8,7.9,14.4,11.3,25.3,8.7c4.4-1.1,10.6,2,15,4.8c5.5,3.6,9.7,9,14.8,13.3
		c18.4,15.2,25.2,34.9,23,58c-2.4,25.6,9.5,42.7,29.8,56.5c25.4,17.2,50.7,34.5,74.7,53.5c37.2,29.5,57.9,68.8,63.4,116
		c1.6,13.4,6.9,19.4,20.4,22.1c5.4,1.1,10.7,2.8,16.1,3.4c11.4,1.3,13.7-0.3,19.4-11.1c-0.3-0.4-0.6-1-1.1-1.1
		c-4.2-1.5-10.7-0.4-10.5-6.8c0.1-1.9,5.9-4.6,9.4-5.2c6.1-1.2,11.7,0.6,13.9,7.3c6.4,19.4-5.2,34.7-27.4,36.5
		c-19.3,1.5-37.9-2.3-56.2-7.8c-5.2-1.5-9.1-2-13.1,2.6c-5.3,6.2-12.3,8.5-20.6,8.6c-27.9,0.6-55.8,2-83.7,2.3
		c-8.1,0.1-16.5-1.7-24.2-4.2c-3.1-1-6.6-6.3-6.5-9.6c0.1-3.2,4-7.7,7.2-9c5.1-2.1,11.2-2.1,16.8-3C280.6,449.2,281,448.6,281.5,448
		z M137.3,132.3c-16.1,20.3-21.6,62.1-12.2,87.1c5.3-12.6,10.7-24,15.1-35.8C146.5,166.4,150,149,137.3,132.3z M139.5,361
		c-1.8,17.2-3.6,32.5-5,48c-0.2,1.8,2.1,3.8,3.2,5.7c1.5-1.7,3.7-3.1,4.3-5c2.3-7.3,4.8-14.7,5.8-22.2
		C149,378.6,149.8,369.4,139.5,361z"/>
	<path class="st0" d="M137.3,132.3c12.7,16.7,9.2,34.1,2.8,51.3c-4.4,11.8-9.7,23.2-15.1,35.8C115.7,194.4,121.1,152.6,137.3,132.3z
		"/>
	<path class="st0" d="M139.5,361c10.3,8.4,9.5,17.6,8.4,26.4c-1,7.5-3.5,14.9-5.8,22.2c-0.6,1.9-2.8,3.4-4.3,5
		c-1.1-1.9-3.4-3.9-3.2-5.7C135.8,393.5,137.6,378.1,139.5,361z"/>
</g>
<circle class="st1" cx="292.4" cy="295" r="272.4"/>
</svg>
