<?xml version="1.0" encoding="utf-8"?>
<!-- Generator: Adobe Illustrator 25.1.0, SVG Export Plug-In . SVG Version: 6.00 Build 0)  -->
<svg version="1.1" id="Layer_1" xmlns="http://www.w3.org/2000/svg" xmlns:xlink="http://www.w3.org/1999/xlink" x="0px" y="0px"
	 viewBox="0 0 576 576" style="enable-background:new 0 0 576 576;" xml:space="preserve">
<style type="text/css">
	.st0{fill:#FFFFFF;}
	.st1{fill:none;stroke:#EFD90A;stroke-width:10.8066;stroke-miterlimit:10;}
</style>
<g>
	<g>
		<path class="st0" d="M337,488.1c0-9.7,0.2-18.4,0-27c-0.7-23.1-1.7-46.3-2.5-69.4c-0.9-25.1-1.7-50.3-2.4-75.4
			c0-1.6,0.6-3.8,1.7-4.7c8.2-7,13.2-16.1,17.5-25.8c7.9-17.9,7.5-36.9,8.9-55.8c0.3-4.6,1.6-9.6,3.8-13.6
			c7.8-14.5,16.5-28.5,24.3-43c2.9-5.3,4.8-11.3,6-17.3c1.3-5.8-2.8-9.7-8.8-10c-6-0.4-9.1,3.4-11.9,7.7
			c-10.5,16-20.8,32.1-31.3,48.2c-0.8,1.3-1.8,2.4-2.8,3.6c-0.6-0.2-1.1-0.3-1.7-0.5c0.2-2.3,0-4.7,0.5-6.9
			c4.1-17.4,8.4-34.8,12.4-52.3c2.2-9.5,5.4-18.9,4.3-28.9c-0.9-8.5-6.1-12.5-13.4-9.8c-5.4,2-7.2,6.6-8.5,11.5
			c-6.6,23.3-13.2,46.7-19.9,70c-0.6,2.2-2.5,4-3.8,6c-0.5-0.2-1-0.5-1.5-0.7c-0.3-1.6-0.8-3.1-0.8-4.7c-0.4-19-0.7-38-1.1-57
			c-0.2-9.2-0.1-18.4-1.1-27.4c-1.3-11.3-11-15.7-19.9-9.7c-4.6,3.1-5.4,7.7-5.3,12.7c0.4,24,0.9,48,1.3,71.9c0,2.3,0.6,4.9-0.1,6.9
			c-0.8,2.2-3,3.9-4.6,5.8c-1.3-1.4-3.2-2.7-3.9-4.4c-2.4-6-4.3-12.2-6.5-18.3c-5.8-16.3-11.6-32.6-17.5-48.8
			c-2.8-7.7-8.1-10.6-15.1-8.3c-6.6,2.1-9.3,7.6-7.5,15.1c0.3,1.5,0.7,2.9,1.2,4.3c6.4,22.3,12.8,44.7,19.4,67
			c3.5,11.9,1.1,23.4-2.4,34.7c-0.4,1.3-1.6,2.4-2.4,3.5c-1.2-1-2.7-1.7-3.6-2.9c-6.2-8.8-13.4-16.6-22.6-22.3
			c-9.6-6-19.9-10-31.4-9.9c-4.5,0.1-10,4-10.5,7.9c-0.6,4.3,1.2,8,5.1,10c18.4,9.3,30.2,24.6,39.1,42.6c2.4,4.9,4.8,9.9,7.5,14.6
			c7.7,13.5,19.7,22.3,33,29.7c3.1,1.7,3.9,3.9,3.8,7.2c-0.7,16.6-1.3,33.3-1.8,49.9c-1.1,34.5-2.1,68.9-3,103.4
			c-0.2,8.8,0,17.5,0,26.4C284.4,496.8,311.2,494.4,337,488.1z M140.8,305c-0.8,0-1.5,0-2.3,0c-0.9-1.6-1.8-3.1-2.6-4.7
			c-6.3-12.5-12.5-25-18.8-37.5c-1.8-3.7-4.6-5.1-8.6-3.8c-4.2,1.4-5.6,4.5-4.7,8.6c0.3,1.6,1,3.2,1.6,4.7
			c5.3,12.5,10.7,25.1,16,37.6c3.4,8.2,3.6,16.6,0.3,26c-1.8-2-2.9-3.4-4.2-4.7c-8.8-8.9-19.1-14.6-31.9-13.8
			c-2.6,0.2-5,3.5-7.5,5.4c1.7,2.1,3,5.3,5.2,6.3c10.3,4.5,18.6,11.5,24.2,20.9c7,11.7,15.7,20.9,28.6,25.9c1.6,0.6,3.3,3.3,3.5,5.1
			c2.2,23.3,4.1,46.7,6.3,70c0.2,1.6,1.4,3.8,2.8,4.6c12.8,7.1,25.6,14.1,38.6,20.8c3.4,1.8,7.2,2.8,11.5,4.4
			c-3.3-20.9-6.5-40.9-9.6-60.8c-2.1-13.6-4.3-27.2-6.2-40.9c-0.3-2.1-0.1-4.9,1.1-6.5c8.8-11.5,11.1-24.7,10-38.6
			c-0.8-10.2-1.1-20,4.1-29.5c3.4-6.2,5.8-13,8.3-19.7c1.2-3.4,2-7,2.2-10.6c0.1-1.7-1.5-4.4-3-4.9c-1.8-0.7-4.8-0.3-6.4,0.8
			c-2,1.5-3.3,4.1-4.5,6.4c-4.5,9.1-8.9,18.3-13.3,27.4c-0.7,1.5-1.7,2.9-2.5,4.3c-1.1-1.9-1.4-3.3-1.2-4.7
			c1.1-9.9,2.5-19.8,3.3-29.7c0.6-7.2,0.8-14.5,0.4-21.7c-0.1-1.7-3.4-4.7-5.1-4.6c-2.3,0.1-4.7,2.4-6.5,4.3c-1,1-0.9,3.1-1.2,4.7
			c-2.3,14.3-4.6,28.5-7,42.8c-0.2,1.4-1.1,2.7-2,5c-1-2.1-1.6-2.9-1.8-3.8c-1.1-7.7-2.1-15.5-3.2-23.2c-1.3-9.4-2.4-18.8-4.2-28.1
			c-1-5.4-4.5-7.4-8.9-6.3c-4.9,1.1-6.9,4.2-6.2,9.6c2,15.1,4.1,30.3,6,45.4C142,300.3,141.1,302.7,140.8,305z M385.6,338.1
			c-1.7-2.7-2.7-4.4-3.7-6c-6.2-9.6-14.5-16.6-26.1-18.3c-2.4-0.4-6.2,1.5-7.7,3.5c-2,2.6,0.4,5.2,3,6.8
			c9.2,6.2,15.4,14.9,18.7,25.2c3.9,11.9,10.2,21.5,20.5,28.7c1.5,1,2.8,3.9,2.6,5.7c-3,24.6-6.3,49.1-9.4,73.6
			c-0.6,4.7-1,9.5-1.6,15.5c9.2-5.2,17.2-9.4,24.7-14.2c7.3-4.6,14.3-9.8,21.1-15.1c1.4-1.1,2.5-3.5,2.6-5.4
			c1.1-15.4,1.9-30.9,3-46.4c0.2-2.3,0.7-5.4,2.3-6.7c10.8-9,15.6-20.9,17.4-34.3c1.3-9.9,3.4-19.1,10.3-26.9
			c4.5-5.1,8.1-11,11.9-16.7c1.6-2.5,3.1-5.3,3.6-8.1c0.3-1.8-0.7-5-2.2-5.7c-1.7-1-4.6-0.4-6.8,0.2c-1.2,0.3-2.2,1.9-3.2,3.1
			c-6.4,7.9-12.6,15.9-19,23.8c-1,1.3-2.2,2.5-3.4,3.7c-0.7-2-0.5-3.5-0.1-4.8c2.5-7.4,5.3-14.7,7.7-22.1c2.3-7.3,4.5-14.6,6.2-22
			c0.7-3.1,0.8-7.1-3.7-8.1c-4.4-1-6.8,1.7-8.4,5.3c-0.7,1.5-1.3,3.1-1.9,4.6c-4.3,11.2-8.6,22.3-13.1,33.5
			c-0.7,1.8-1.9,3.4-2.9,5.2c-1.3-1.3-1.7-2.2-1.6-3.1c0.7-9,1.5-17.9,2.1-26.9c0.5-7.5,1.2-14.9,1.3-22.4c0.1-3.6-1.2-7-5.8-7.4
			c-4.7-0.4-7.7,1.6-8.8,6.2c-0.3,1.1-0.2,2.3-0.3,3.5c-1.2,14.3-2.4,28.5-3.8,42.8c-0.2,1.7-1.8,3.3-2.7,5
			c-1.7-1.9-2.1-3.1-2.5-4.4c-3.3-13-6.7-26-9.9-39.1c-1-4.3-3.4-6.3-7.8-5.8c-4,0.5-6.1,3.6-5.6,8.5c0.1,1.2,0.2,2.3,0.4,3.5
			c2.2,11.4,4.2,22.9,6.7,34.2C391.9,319.8,390.8,328.6,385.6,338.1z"/>
		<path d="M337,488.1c-25.8,6.3-52.5,8.6-79.9,5.7c0-8.9-0.2-17.7,0-26.4c0.9-34.5,1.9-68.9,3-103.4c0.5-16.6,1.1-33.3,1.8-49.9
			c0.1-3.3-0.7-5.5-3.8-7.2c-13.3-7.3-25.3-16.2-33-29.7c-2.7-4.8-5.1-9.7-7.5-14.6c-8.9-18-20.7-33.3-39.1-42.6
			c-3.9-2-5.7-5.7-5.1-10c0.5-3.8,6-7.8,10.5-7.9c11.5-0.1,21.8,3.9,31.4,9.9c9.2,5.7,16.4,13.5,22.6,22.3c0.9,1.2,2.4,2,3.6,2.9
			c0.8-1.2,2-2.2,2.4-3.5c3.5-11.4,5.9-22.8,2.4-34.7c-6.5-22.3-12.9-44.6-19.4-67c-0.4-1.4-0.8-2.9-1.2-4.3c-1.8-7.5,1-13,7.5-15.1
			c7-2.2,12.3,0.6,15.1,8.3c5.9,16.2,11.7,32.5,17.5,48.8c2.2,6.1,4.1,12.3,6.5,18.3c0.7,1.7,2.6,2.9,3.9,4.4
			c1.6-1.9,3.8-3.6,4.6-5.8c0.8-2,0.2-4.6,0.1-6.9c-0.4-24-0.8-48-1.3-71.9c-0.1-5,0.7-9.7,5.3-12.7c8.9-6,18.6-1.5,19.9,9.7
			c1,9.1,0.9,18.3,1.1,27.4c0.4,19,0.7,38,1.1,57c0,1.6,0.6,3.1,0.8,4.7c0.5,0.2,1,0.5,1.5,0.7c1.3-2,3.2-3.8,3.8-6
			c6.7-23.3,13.3-46.6,19.9-70c1.4-4.9,3.2-9.5,8.5-11.5c7.3-2.7,12.5,1.3,13.4,9.8c1,10-2.1,19.4-4.3,28.9
			c-4,17.5-8.3,34.8-12.4,52.3c-0.5,2.2-0.4,4.6-0.5,6.9c0.6,0.2,1.1,0.3,1.7,0.5c0.9-1.2,1.9-2.3,2.8-3.6
			c10.4-16,20.8-32.1,31.3-48.2c2.8-4.3,5.9-8,11.9-7.7c6,0.4,10.1,4.3,8.8,10c-1.3,5.9-3.2,11.9-6,17.3
			c-7.8,14.5-16.5,28.5-24.3,43c-2.2,4.1-3.4,9-3.8,13.6c-1.4,18.9-1,37.9-8.9,55.8c-4.3,9.7-9.3,18.8-17.5,25.8
			c-1.1,1-1.8,3.1-1.7,4.7c0.7,25.1,1.5,50.3,2.4,75.4c0.8,23.1,1.8,46.3,2.5,69.4C337.2,469.8,337,478.4,337,488.1z M249.6,231.6
			c22.6,4.9,40.3,15.8,47.9,39.2C297.4,248.5,278.2,232.9,249.6,231.6z"/>
		<path d="M140.8,305c0.3-2.3,1.2-4.8,0.9-7c-1.9-15.2-4-30.3-6-45.4c-0.7-5.4,1.3-8.5,6.2-9.6c4.4-1,7.9,0.9,8.9,6.3
			c1.8,9.3,2.9,18.7,4.2,28.1c1.1,7.7,2.1,15.5,3.2,23.2c0.1,0.9,0.8,1.7,1.8,3.8c1-2.3,1.8-3.6,2-5c2.4-14.2,4.7-28.5,7-42.8
			c0.3-1.6,0.2-3.7,1.2-4.7c1.8-1.9,4.2-4.2,6.5-4.3c1.7-0.1,5,2.9,5.1,4.6c0.4,7.2,0.2,14.5-0.4,21.7c-0.8,9.9-2.3,19.8-3.3,29.7
			c-0.2,1.4,0.1,2.8,1.2,4.7c0.8-1.4,1.8-2.8,2.5-4.3c4.4-9.1,8.8-18.3,13.3-27.4c1.2-2.3,2.5-4.9,4.5-6.4c1.6-1.2,4.5-1.5,6.4-0.8
			c1.5,0.6,3,3.3,3,4.9c-0.2,3.6-1,7.2-2.2,10.6c-2.5,6.7-4.9,13.5-8.3,19.7c-5.2,9.5-4.9,19.3-4.1,29.5c1.1,13.9-1.2,27.1-10,38.6
			c-1.2,1.6-1.4,4.4-1.1,6.5c1.9,13.6,4.1,27.3,6.2,40.9c3.1,20,6.3,39.9,9.6,60.8c-4.2-1.6-8.1-2.6-11.5-4.4
			c-12.9-6.8-25.8-13.7-38.6-20.8c-1.4-0.8-2.7-2.9-2.8-4.6c-2.2-23.3-4.1-46.7-6.3-70c-0.2-1.9-1.9-4.5-3.5-5.1
			c-12.9-5-21.6-14.2-28.6-25.9c-5.6-9.4-13.9-16.3-24.2-20.9c-2.2-1-3.5-4.1-5.2-6.3c2.5-1.9,4.9-5.2,7.5-5.4
			c12.8-0.8,23.1,4.9,31.9,13.8c1.2,1.2,2.3,2.6,4.2,4.7c3.4-9.4,3.2-17.8-0.3-26c-5.2-12.6-10.6-25.1-16-37.6
			c-0.6-1.5-1.3-3.1-1.6-4.7c-0.8-4.1,0.5-7.2,4.7-8.6c4-1.3,6.8,0.1,8.6,3.8c6.2,12.5,12.5,25,18.8,37.5c0.8,1.6,1.7,3.1,2.6,4.7
			C139.3,305,140,305,140.8,305z M157.7,347.7c-0.8-11.1-13.3-19.6-27.1-18.2C143.1,331.4,151.9,336.9,157.7,347.7z"/>
		<path d="M385.6,338.1c5.3-9.5,6.4-18.3,4.3-27.8c-2.5-11.3-4.5-22.8-6.7-34.2c-0.2-1.1-0.4-2.3-0.4-3.5c-0.4-4.9,1.6-8,5.6-8.5
			c4.4-0.5,6.7,1.5,7.8,5.8c3.2,13.1,6.5,26.1,9.9,39.1c0.3,1.3,0.7,2.5,2.5,4.4c1-1.6,2.6-3.2,2.7-5c1.4-14.2,2.6-28.5,3.8-42.8
			c0.1-1.2,0-2.4,0.3-3.5c1.1-4.6,4.1-6.6,8.8-6.2c4.6,0.4,5.8,3.8,5.8,7.4c-0.1,7.5-0.7,14.9-1.3,22.4c-0.6,9-1.5,17.9-2.1,26.9
			c-0.1,0.9,0.3,1.8,1.6,3.1c1-1.7,2.2-3.3,2.9-5.2c4.4-11.1,8.7-22.3,13.1-33.5c0.6-1.5,1.2-3.1,1.9-4.6c1.6-3.6,4-6.4,8.4-5.3
			c4.4,1,4.4,5,3.7,8.1c-1.7,7.4-3.9,14.7-6.2,22c-2.4,7.4-5.1,14.7-7.7,22.1c-0.5,1.3-0.6,2.8,0.1,4.8c1.1-1.2,2.3-2.4,3.4-3.7
			c6.3-7.9,12.6-15.9,19-23.8c0.9-1.2,1.9-2.7,3.2-3.1c2.2-0.6,5-1.1,6.8-0.2c1.4,0.8,2.5,3.9,2.2,5.7c-0.5,2.8-2,5.6-3.6,8.1
			c-3.7,5.7-7.4,11.6-11.9,16.7c-6.8,7.8-8.9,17.1-10.3,26.9c-1.8,13.3-6.6,25.3-17.4,34.3c-1.6,1.3-2.1,4.4-2.3,6.7
			c-1.1,15.4-1.9,30.9-3,46.4c-0.1,1.9-1.2,4.3-2.6,5.4c-6.9,5.2-13.8,10.4-21.1,15.1c-7.6,4.8-15.5,8.9-24.7,14.2
			c0.6-6.1,0.9-10.8,1.6-15.5c3.2-24.5,6.5-49.1,9.4-73.6c0.2-1.8-1.1-4.6-2.6-5.7c-10.3-7.2-16.6-16.8-20.5-28.7
			c-3.4-10.3-9.5-19-18.7-25.2c-2.5-1.7-4.9-4.3-3-6.8c1.5-2,5.3-3.9,7.7-3.5c11.6,1.7,19.9,8.7,26.1,18.3
			C382.9,333.7,383.9,335.4,385.6,338.1z M415.6,357.4c1.7-10.7-8.5-22.9-23-24.1C404.7,337.6,412.3,344.8,415.6,357.4z"/>
		<path class="st0" d="M249.6,231.6c28.7,1.2,47.9,16.8,47.9,39.2C289.8,247.5,272.1,236.6,249.6,231.6z"/>
		<path class="st0" d="M157.7,347.7c-5.8-10.8-14.6-16.3-27.1-18.2C144.4,328.1,157,336.6,157.7,347.7z"/>
		<path class="st0" d="M415.6,357.4c-3.3-12.7-10.8-19.8-23-24.1C407,334.6,417.3,346.8,415.6,357.4z"/>
	</g>
	<circle class="st1" cx="292.5" cy="291.6" r="272.4"/>
</g>
</svg>
