<?xml version="1.0" encoding="utf-8"?>
<!-- Generator: Adobe Illustrator 25.1.0, SVG Export Plug-In . SVG Version: 6.00 Build 0)  -->
<svg version="1.1" id="Layer_1" xmlns="http://www.w3.org/2000/svg" xmlns:xlink="http://www.w3.org/1999/xlink" x="0px" y="0px"
	 viewBox="0 0 583.2 576" style="enable-background:new 0 0 583.2 576;" xml:space="preserve">
<style type="text/css">
	.st0{fill:#FFFFFF;}
	.st1{fill:none;stroke:#EFD90A;stroke-width:10.8066;stroke-miterlimit:10;}
</style>
<g>
	<path class="st0" d="M199.7,305.7c-4.9-1.2-8.9-2.4-13-3.1c-3.4-0.6-4.5-2.3-5.3-5.5c-4.4-20-23.4-32.3-43.3-28.3
		c-19.7,4-32.4,22.9-28.9,43c0.3,1.8,0,4.2-1,5.6c-7.8,11-10,22.7-5.3,35.5c0.9,2.5,0.6,4-1.2,5.9c-4.9,5.2-7.9,11.4-7.9,18.7
		c-0.1,15.8,0.4,31.6-0.1,47.4c-0.4,11.2,3.8,20,12.5,26.1c7.8,5.5,16.1,10.9,25,14.1c49.9,18,100.2,17.9,150.5,1.4
		c11.1-3.7,21.4-9,30.1-17c5.9-5.5,10.3-11.8,10.4-20.3c0.1-16.7,0.2-33.4,0-50.2c-0.2-12.2-4.6-22.3-15.9-28.4
		c-1.1-0.6-2-1.5-3-1.9c-3.7-1.6-4.6-4.2-4.6-8.2c0.2-47.6,0.1-95.2,0-142.8c0-2.5-0.9-5.4-2.2-7.5c-13.4-20.9-27.1-41.7-40.7-62.4
		c-0.8-1.2-1.7-2.4-2.6-3.7c-1.5,1.1-2.7,2-3.8,2.9c-14.1,11.5-28.1,23.2-42.4,34.5c-5,4-7.3,8.6-7.2,15.1
		c0.2,41,0.1,81.9,0.1,122.9C199.7,301.4,199.7,303.2,199.7,305.7z M306.2,196.8c0,2.2,0,3.7,0,5.2c0,45,0.1,90.1-0.1,135.1
		c0,3.6,1.1,5.7,4.2,7.4c11.1,6.3,17.7,15.8,18.6,28.7c0.7,9.3,0.6,18.6,0.7,28c0.1,8.7,0,17.3,0,26.1c1.1,0,1.5,0.1,2,0
		c44.3-7.7,88.7-15.5,133-23.2c7.5-1.3,11.2-6.1,11.2-14c0-67,0-134.1,0-201.1c0-1.3-0.1-2.6-0.2-4.6
		C419.2,188.4,362.9,192.6,306.2,196.8z M264.2,127c1.5,2.4,2.5,4.1,3.6,5.7c10,15.4,20.1,30.7,30.1,46.1c7,10.8,7,10.6,19.8,9.6
		c39.5-3,78.9-5.9,118.4-8.8c10.7-0.8,21.5-1.6,32.8-2.5c-1.2-1.8-2-3.1-2.8-4.3c-11.5-16-23.1-31.9-34.5-48c-2.1-3-4.3-3.9-7.8-3.8
		c-44.2,1.7-88.4,3.2-132.6,4.9C282.5,126.2,273.8,126.6,264.2,127z M430,114.4c0-8.8,0.2-16-0.1-23.2c-0.2-5.1-4.1-9.4-9.1-10.6
		c-2-0.5-4.2-0.6-6.3-0.6c-48.6,0-97.2,0-145.9,0c-0.8,0-1.5,0-2.3,0c-8.2,0.6-12.9,5.4-13,13.7c-0.1,5.4,0,10.8,0,16.3
		c0,7,2.9,9.7,10,9.5c17.3-0.6,34.6-1.3,51.9-1.9c29.9-1,59.9-2.1,89.8-3C413.3,114.2,421.4,114.4,430,114.4z"/>
	<path d="M199.7,305.7c0-2.5,0-4.3,0-6.1c0-41,0.1-81.9-0.1-122.9c0-6.5,2.2-11.1,7.2-15.1c14.3-11.3,28.3-23,42.4-34.5
		c1.2-0.9,2.4-1.8,3.8-2.9c1,1.3,1.8,2.5,2.6,3.7c13.6,20.8,27.2,41.6,40.7,62.4c1.4,2.1,2.2,5,2.2,7.5c0.1,47.6,0.1,95.2,0,142.8
		c0,4,0.9,6.6,4.6,8.2c1.1,0.5,2,1.4,3,1.9c11.3,6.1,15.7,16.2,15.9,28.4c0.2,16.7,0.1,33.4,0,50.2c0,8.5-4.4,14.8-10.4,20.3
		c-8.7,8-19,13.3-30.1,17c-50.3,16.6-100.6,16.7-150.5-1.4c-8.9-3.2-17.2-8.6-25-14.1c-8.7-6.1-12.8-14.9-12.5-26.1
		c0.5-15.8,0.1-31.6,0.1-47.4c0-7.3,3-13.5,7.9-18.7c1.8-1.9,2.1-3.4,1.2-5.9c-4.7-12.7-2.6-24.5,5.3-35.5c1-1.4,1.3-3.8,1-5.6
		c-3.5-20.1,9.2-39,28.9-43c19.8-4,38.9,8.3,43.3,28.3c0.7,3.2,1.9,5,5.3,5.5C190.8,303.3,194.9,304.5,199.7,305.7z M215.6,357.6
		c-0.7,15.7,3.4,24,13.6,28.4c9,3.9,19.3,1.6,26.1-5.6c7.4-8,7.9-17.4,1.5-30c11.1-8.1,15-16.8,12-27.1
		c-2.6-9.3-10.7-16.4-20.2-16.9c-13.6-0.7-21.5,6.6-25.4,19.3c-18.6-4.6-36.9-9.2-55.2-13.8c1.2-14.6-2.7-23-12.5-27.8
		c-8.5-4.2-18.9-2.8-25.6,3.7c-9.8,9.5-9.8,20.2-3,31.4c-11.2,8.2-15,17-11.9,27.4c2.9,9.6,11.4,16.4,21.3,16.8
		c11,0.5,18.9-5.8,24.3-19.5C178.8,348.5,197.1,353,215.6,357.6z M112.6,367.5c-6.3,6.6-6.7,12.7-1.1,19.1c2.5,2.8,5.3,5.5,8.6,7.2
		c6.5,3.5,13,7.1,20,9.3c43.9,13.6,88,13.5,132.2,1.3c10.9-3,21.4-7.4,29.9-15.2c8.5-7.8,8.9-16.4-0.2-23.4
		c-7.2-5.5-15.7-9.2-23.8-13.4c-2.9-1.5-4.1,0.5-4.1,3.3c0,1,0.3,2.1,0.5,3.1c2.8,16.7-6.2,33.1-21.6,39.7
		c-21.5,9.2-45.5-3.1-50.5-26c-0.7-3.3-2.1-4.8-5.3-5.5c-8.4-1.9-16.7-4-25-6.2c-2.5-0.7-4.1-0.2-5.7,1.9c-5,6.7-11.8,11.2-20,13.1
		C133.9,378.8,122.6,376.1,112.6,367.5z"/>
	<path d="M306.2,196.8c56.7-4.2,112.9-8.3,169.4-12.5c0.1,2,0.2,3.3,0.2,4.6c0,67,0,134.1,0,201.1c0,8-3.7,12.7-11.2,14
		c-44.3,7.8-88.7,15.5-133,23.2c-0.4,0.1-0.9,0-2,0c0-8.7,0.1-17.4,0-26.1c-0.1-9.3-0.1-18.7-0.7-28c-0.9-12.8-7.5-22.4-18.6-28.7
		c-3.1-1.8-4.2-3.8-4.2-7.4c0.1-45,0.1-90.1,0.1-135.1C306.2,200.5,306.2,199,306.2,196.8z M379.9,251.8c-0.4-1-0.9-2.4-1.4-3.8
		c-2.5-7.1-5-14.2-7.7-21.2c-1.6-4.1-5.5-5.3-8.7-2.9c-10.8,8.1-15.3,22.1-11.2,35.1c1.6,4.9,3.8,9.5,5,14.5
		c0.8,3.4,1.4,7.3,0.3,10.5c-4.7,14.5-13,26.4-26.7,33.9c-1.3,0.7-2.5,1.6-3.6,2.3c7.4,28.6,32,53,56.8,56.3
		c2.8-13.5,5.6-27,8.4-40.6c2.2-10.4,7.1-14.5,17.8-14.7c7.7-0.1,15.4,0.1,23-0.2c7.7-0.3,13-4.5,15.9-11.5c2.8-7,1.8-13.7-4.2-18.4
		c-4.6-3.6-10.1-6.4-15.4-8.9c-2.9-1.3-4.7-2.5-5.4-5.8c-2.7-13.1-10.7-21.6-23.6-24.5C393.2,250.7,386.6,251.8,379.9,251.8z"/>
	<path d="M264.2,127c9.6-0.4,18.3-0.8,27-1.1c44.2-1.6,88.4-3.2,132.6-4.9c3.5-0.1,5.7,0.8,7.8,3.8c11.3,16.1,23,32,34.5,48
		c0.9,1.2,1.6,2.4,2.8,4.3c-11.3,0.9-22.1,1.7-32.8,2.5c-39.5,2.9-78.9,5.8-118.4,8.8c-12.8,1-12.8,1.2-19.8-9.6
		c-10-15.4-20.1-30.7-30.1-46.1C266.7,131.1,265.7,129.5,264.2,127z"/>
	<path d="M430,114.4c-8.7,0-16.8-0.2-24.9,0c-29.9,0.9-59.9,2-89.8,3c-17.3,0.6-34.6,1.3-51.9,1.9c-7.1,0.2-10-2.5-10-9.5
		c0-5.4-0.1-10.8,0-16.3c0.1-8.3,4.8-13.1,13-13.7c0.7-0.1,1.5,0,2.3,0c48.6,0,97.2,0,145.9,0c2.1,0,4.2,0.2,6.3,0.6
		c5,1.2,8.9,5.5,9.1,10.6C430.2,98.3,430,105.5,430,114.4z"/>
	<path class="st0" d="M215.6,357.6c-18.6-4.6-36.8-9.2-54.9-13.7c-5.3,13.7-13.2,19.9-24.3,19.5c-9.9-0.4-18.4-7.2-21.3-16.8
		c-3.1-10.4,0.7-19.2,11.9-27.4c-6.8-11.1-6.8-21.8,3-31.4c6.7-6.6,17.1-7.9,25.6-3.7c9.8,4.8,13.7,13.3,12.5,27.8
		c18.2,4.6,36.6,9.1,55.2,13.8c3.8-12.7,11.8-20,25.4-19.3c9.5,0.5,17.6,7.6,20.2,16.9c2.9,10.3-1,19.1-12,27.1
		c6.4,12.6,5.9,22-1.5,30c-6.7,7.2-17.1,9.5-26.1,5.6C219,381.6,214.9,373.3,215.6,357.6z"/>
	<path class="st0" d="M112.6,367.5c10.1,8.6,21.3,11.4,33.9,8.4c8.2-1.9,14.9-6.4,20-13.1c1.6-2.2,3.2-2.6,5.7-1.9
		c8.3,2.2,16.6,4.3,25,6.2c3.2,0.7,4.6,2.2,5.3,5.5c5,22.9,29,35.1,50.5,26c15.5-6.6,24.4-23,21.6-39.7c-0.2-1-0.5-2.1-0.5-3.1
		c-0.1-2.8,1.2-4.7,4.1-3.3c8.1,4.2,16.7,7.9,23.8,13.4c9.1,7,8.7,15.6,0.2,23.4c-8.5,7.8-19,12.2-29.9,15.2
		c-44.2,12.2-88.3,12.2-132.2-1.3c-7-2.2-13.5-5.8-20-9.3c-3.2-1.8-6.1-4.5-8.6-7.2C105.9,380.2,106.3,374.1,112.6,367.5z"/>
	<path class="st0" d="M379.9,251.8c6.7,0,13.4-1.1,19.4,0.2c12.8,2.9,20.9,11.4,23.6,24.5c0.7,3.3,2.5,4.5,5.4,5.8
		c5.4,2.5,10.8,5.3,15.4,8.9c6,4.7,7.1,11.4,4.2,18.4c-2.8,7-8.2,11.2-15.9,11.5c-7.7,0.3-15.3,0-23,0.2
		c-10.7,0.2-15.7,4.3-17.8,14.7c-2.8,13.5-5.6,27-8.4,40.6c-24.8-3.3-49.5-27.6-56.8-56.3c1.1-0.7,2.3-1.6,3.6-2.3
		c13.7-7.5,22-19.4,26.7-33.9c1-3.2,0.5-7.1-0.3-10.5c-1.2-4.9-3.4-9.6-5-14.5c-4.2-13,0.3-27,11.2-35.1c3.2-2.4,7.1-1.2,8.7,2.9
		c2.7,7,5.1,14.1,7.7,21.2C379,249.4,379.5,250.8,379.9,251.8z"/>
</g>
<circle class="st1" cx="291.1" cy="287.5" r="272.4"/>
</svg>
